# xmcd
#
# Track frame offsets: 
#        150
#        16705
#        30557
#        46815
#        60315
#        71915
#        86300
#        97507
#        108672
#        120640
#        132775
#        145635
#        157327
#        167615
#        180272
#        193675
#        206397
#        218712
#        230770
#        246567
#        277880
#        298482
#        311682
#        325815
#        339235
#
# Disc length: 4724 seconds
#
# Revision: 2
# Processed by: cddbd v1.5.2PL0 Copyright (c) Steve Scherf et al.
# Submitted via: ExactAudioCopyFreeDBPlugin 1.0
#
DISCID=5e127219
DTITLE=Various Artist - The Complete Stax-Volt Singles, 1959-1975
DYEAR=1993
DGENRE=Soul
TTITLE0=Booker T. and The M.G.s - Mrs. Robinson
TTITLE1=William Bell and Mavis Staples - Love's Sweet Sensation
TTITLE2=Darrell Banks - Just Because Your Love is Gone
TTITLE3=Jimmy Hughes - Chains of Love
TTITLE4=William Bell - Happy
TTITLE5=The Staple Singers - The Challenge
TTITLE6=Johnnie Taylor, Eddie Floyd and William Bell - Soul-A-Lujah
TTITLE7=Eddie Floyd and Mavis Staples - Never, Never Let You Go
TTITLE8=Johnnie Taylor and Carla Thomas - Just Keep on Loving Me
TTITLE9=William Bell and Carla Thomas - I Need You Woman
TTITLE10=Ollie and The Nightingales - I've Got a Feeling
TTITLE11=Jeanne and The Darlings - It's Time to Pay for the Fun (We've H
TTITLE11=ad)
TTITLE12=Johnnie Taylor - I Could Never Be President
TTITLE13=The Mad Lads - By the Time I Get to Phoenix
TTITLE14=Colette Kelly - Long and Lonely World
TTITLE15=The Bar- Kays - Midnight Cowboy
TTITLE16=Carla Thomas - I've Fallen in Love (With You)
TTITLE17=Booker T. and The M.G.s - Slum Baby
TTITLE18=The Emotions - The Best Part of a Love Affair
TTITLE19=Isaac Hayes - By the Time I Get to Phoenix
TTITLE20=Isaac Hayes - Walk on By
TTITLE21=Pop Staples, Albert King and Steve Cropper - Tupelo (Part 1)
TTITLE22=Pop Staples, Albert King and Steve Cropper - Water
TTITLE23=The Soul Children - The Sweeter He Is (Part 1)
TTITLE24=Mavis Staples - You're Driving Me (To the Arms of a Stranger)
EXTD=
EXTT0=
EXTT1=
EXTT2=
EXTT3=
EXTT4=
EXTT5=
EXTT6=
EXTT7=
EXTT8=
EXTT9=
EXTT10=
EXTT11=
EXTT12=
EXTT13=
EXTT14=
EXTT15=
EXTT16=
EXTT17=
EXTT18=
EXTT19=
EXTT20=
EXTT21=
EXTT22=
EXTT23=
EXTT24=
PLAYORDER=
